<svg width="330" height="348" viewBox="0 0 330 348" fill="none" xmlns="http://www.w3.org/2000/svg">
<g clip-path="url(#clip0_17121_9453)">
<path d="M295.5 322.5V339.5H307V322.5H324V311.5H307V295H296V311.5H279V322.5H295.5Z" fill="url(#paint0_linear_17121_9453)"/>
<circle cx="224.5" cy="110.5" r="92.5" fill="url(#paint1_linear_17121_9453)"/>
<path d="M202 5C207.894 5 213.538 6.06442 218.755 8.00781C165.205 8.70859 122 54.5515 122 111C122 147.594 140.158 179.729 167.52 198H97.2363L96.8398 198.367L64.7314 228.042C64.0951 228.63 63.3504 229.089 62.5391 229.394L61.7568 229.687C60.2994 230.233 58.6705 230.07 57.3506 229.245C55.8961 228.336 54.9651 226.751 54.8936 225.034C54.7462 221.496 54.5 213.715 54.5 198V197.873C29.6244 196.08 10 175.333 10 150V53C10 26.4903 31.4903 5 58 5H202Z" fill="url(#paint2_linear_17121_9453)"/>
<path d="M226.77 58.3926C228.284 53.9295 234.567 53.8482 236.196 58.2705L247.564 89.1289C248.308 91.148 250.261 92.4644 252.412 92.3975L284.106 91.4111C288.721 91.2674 291.049 96.9206 287.67 100.067L274.311 112.51L261.2 123.929C259.741 125.199 259.146 127.197 259.672 129.059L268.056 158.722C269.327 163.222 264.276 166.85 260.418 164.207L237.618 148.591C237.364 148.416 237.096 148.268 236.819 148.146C241.476 140.899 244.212 132.056 244.212 122.511C244.212 103.878 233.789 87.9221 219 81.293L226.77 58.3926Z" fill="white"/>
<path d="M199 82C221.091 82 239 99.9086 239 122C239 144.091 221.091 162 199 162C176.909 162 159 144.091 159 122C159 99.9086 176.909 82 199 82ZM218.769 100.856C216.261 100.618 213.773 101.481 211.952 103.221L193.44 120.909C192.922 121.405 192.103 121.396 191.596 120.889L186.333 115.626C185.303 114.596 184.023 113.847 182.62 113.454C177.099 111.909 171.667 116.169 171.852 121.899L171.888 123.031C171.964 125.397 172.938 127.645 174.611 129.318L188.728 143.435C191.332 146.039 195.589 145.926 198.053 143.188L198.371 142.834L223.976 116.782C225.906 114.817 226.88 112.106 226.642 109.361L226.588 108.741C226.225 104.571 222.936 101.254 218.769 100.856ZM216.227 108.519C218.231 107.66 220.333 109.512 219.734 111.608C219.616 112.023 219.396 112.402 219.094 112.71L194.782 137.509C194.708 137.585 194.626 137.655 194.541 137.719C193.691 138.356 192.499 138.262 191.76 137.498L179.573 124.892C179.189 124.494 178.951 123.978 178.896 123.428C178.731 121.784 180.203 120.451 181.822 120.774L181.987 120.808C182.487 120.908 182.946 121.153 183.307 121.514L191.229 129.437C192.207 130.414 193.793 130.414 194.771 129.437L214.901 109.306C215.155 109.052 215.455 108.849 215.784 108.708L216.227 108.519Z" fill="white"/>
<path d="M16.5128 341H2.45028L28.054 268.273H44.3182L69.9574 341H55.8949L36.4702 283.188H35.902L16.5128 341ZM16.9744 312.484H55.3267V323.067H16.9744V312.484ZM118.854 286.455L99.4293 341H85.2248L65.8001 286.455H79.5075L92.043 326.973H92.6112L105.182 286.455H118.854ZM139.883 342.101C136.427 342.101 133.314 341.485 130.544 340.254C127.797 339 125.619 337.153 124.01 334.714C122.423 332.276 121.63 329.269 121.63 325.695C121.63 322.617 122.199 320.072 123.335 318.06C124.471 316.047 126.022 314.438 127.987 313.23C129.952 312.023 132.165 311.111 134.627 310.496C137.113 309.857 139.682 309.395 142.333 309.111C145.529 308.779 148.122 308.483 150.11 308.223C152.099 307.939 153.543 307.513 154.443 306.945C155.366 306.353 155.828 305.441 155.828 304.21V303.997C155.828 301.322 155.035 299.25 153.449 297.783C151.862 296.315 149.578 295.581 146.595 295.581C143.446 295.581 140.949 296.268 139.102 297.641C137.279 299.014 136.048 300.635 135.409 302.506L123.406 300.801C124.353 297.487 125.915 294.717 128.093 292.491C130.271 290.242 132.935 288.562 136.083 287.449C139.232 286.312 142.712 285.744 146.524 285.744C149.152 285.744 151.768 286.052 154.372 286.668C156.976 287.283 159.355 288.301 161.51 289.722C163.664 291.118 165.392 293.024 166.694 295.439C168.02 297.854 168.683 300.872 168.683 304.494V341H156.325V333.507H155.899C155.118 335.022 154.017 336.443 152.596 337.768C151.199 339.071 149.436 340.124 147.305 340.929C145.198 341.71 142.724 342.101 139.883 342.101ZM143.221 332.655C145.802 332.655 148.039 332.146 149.933 331.128C151.827 330.086 153.283 328.713 154.301 327.009C155.342 325.304 155.863 323.446 155.863 321.433V315.006C155.461 315.337 154.774 315.645 153.804 315.929C152.857 316.213 151.791 316.462 150.608 316.675C149.424 316.888 148.252 317.077 147.092 317.243C145.932 317.409 144.926 317.551 144.074 317.669C142.156 317.929 140.44 318.356 138.924 318.947C137.409 319.539 136.214 320.368 135.338 321.433C134.462 322.475 134.024 323.824 134.024 325.482C134.024 327.849 134.888 329.636 136.616 330.844C138.344 332.051 140.546 332.655 143.221 332.655ZM192.464 268.273V341H179.609V268.273H192.464ZM203.683 341V286.455H216.538V341H203.683ZM210.146 278.713C208.11 278.713 206.358 278.038 204.891 276.689C203.423 275.316 202.689 273.67 202.689 271.753C202.689 269.812 203.423 268.166 204.891 266.817C206.358 265.444 208.11 264.757 210.146 264.757C212.206 264.757 213.958 265.444 215.402 266.817C216.87 268.166 217.604 269.812 217.604 271.753C217.604 273.67 216.87 275.316 215.402 276.689C213.958 278.038 212.206 278.713 210.146 278.713ZM243.453 342.101C239.997 342.101 236.884 341.485 234.114 340.254C231.368 339 229.19 337.153 227.58 334.714C225.994 332.276 225.201 329.269 225.201 325.695C225.201 322.617 225.769 320.072 226.905 318.06C228.042 316.047 229.592 314.438 231.557 313.23C233.522 312.023 235.736 311.111 238.198 310.496C240.684 309.857 243.252 309.395 245.904 309.111C249.1 308.779 251.692 308.483 253.681 308.223C255.669 307.939 257.114 307.513 258.013 306.945C258.936 306.353 259.398 305.441 259.398 304.21V303.997C259.398 301.322 258.605 299.25 257.019 297.783C255.433 296.315 253.148 295.581 250.165 295.581C247.016 295.581 244.519 296.268 242.672 297.641C240.849 299.014 239.618 300.635 238.979 302.506L226.976 300.801C227.923 297.487 229.486 294.717 231.664 292.491C233.842 290.242 236.505 288.562 239.654 287.449C242.802 286.312 246.283 285.744 250.094 285.744C252.722 285.744 255.338 286.052 257.942 286.668C260.546 287.283 262.926 288.301 265.08 289.722C267.234 291.118 268.962 293.024 270.265 295.439C271.59 297.854 272.253 300.872 272.253 304.494V341H259.895V333.507H259.469C258.688 335.022 257.587 336.443 256.167 337.768C254.77 339.071 253.006 340.124 250.875 340.929C248.768 341.71 246.294 342.101 243.453 342.101ZM246.792 332.655C249.372 332.655 251.609 332.146 253.503 331.128C255.397 330.086 256.853 328.713 257.871 327.009C258.913 325.304 259.434 323.446 259.434 321.433V315.006C259.031 315.337 258.345 315.645 257.374 315.929C256.427 316.213 255.362 316.462 254.178 316.675C252.994 316.888 251.822 317.077 250.662 317.243C249.502 317.409 248.496 317.551 247.644 317.669C245.726 317.929 244.01 318.356 242.495 318.947C240.98 319.539 239.784 320.368 238.908 321.433C238.032 322.475 237.594 323.824 237.594 325.482C237.594 327.849 238.458 329.636 240.186 330.844C241.915 332.051 244.116 332.655 246.792 332.655Z" fill="#3A424C"/>
<g filter="url(#filter0_f_17121_9453)">
<ellipse cx="174.5" cy="250.5" rx="113.5" ry="3.5" fill="#C5C3C3" fill-opacity="0.9"/>
</g>
<g filter="url(#filter1_f_17121_9453)">
<ellipse cx="186.5" cy="250.5" rx="63.5" ry="3.5" fill="#C5C3C3" fill-opacity="0.9"/>
</g>
</g>
<defs>
<filter id="filter0_f_17121_9453" x="49.4" y="235.4" width="250.2" height="30.2" filterUnits="userSpaceOnUse" color-interpolation-filters="sRGB">
<feFlood flood-opacity="0" result="BackgroundImageFix"/>
<feBlend mode="normal" in="SourceGraphic" in2="BackgroundImageFix" result="shape"/>
<feGaussianBlur stdDeviation="5.8" result="effect1_foregroundBlur_17121_9453"/>
</filter>
<filter id="filter1_f_17121_9453" x="111.4" y="235.4" width="150.2" height="30.2" filterUnits="userSpaceOnUse" color-interpolation-filters="sRGB">
<feFlood flood-opacity="0" result="BackgroundImageFix"/>
<feBlend mode="normal" in="SourceGraphic" in2="BackgroundImageFix" result="shape"/>
<feGaussianBlur stdDeviation="5.8" result="effect1_foregroundBlur_17121_9453"/>
</filter>
<linearGradient id="paint0_linear_17121_9453" x1="301.5" y1="295" x2="301.5" y2="339.5" gradientUnits="userSpaceOnUse">
<stop stop-color="#ACDF38"/>
<stop offset="1" stop-color="#5CC852"/>
</linearGradient>
<linearGradient id="paint1_linear_17121_9453" x1="266" y1="26" x2="172" y2="190.5" gradientUnits="userSpaceOnUse">
<stop stop-color="#9EDC3E"/>
<stop offset="0.5" stop-color="#73CC49"/>
<stop offset="1" stop-color="#48BB53"/>
</linearGradient>
<linearGradient id="paint2_linear_17121_9453" x1="230.499" y1="13" x2="28.4991" y2="187.999" gradientUnits="userSpaceOnUse">
<stop offset="0.331731" stop-color="#0CC2E4"/>
<stop offset="0.75" stop-color="#1292E5"/>
<stop offset="1" stop-color="#045EEA"/>
</linearGradient>
<clipPath id="clip0_17121_9453">
<rect width="330" height="348" fill="white"/>
</clipPath>
</defs>
</svg>
