<?xml version="1.0" standalone="no"?>
<!DOCTYPE svg PUBLIC "-//W3C//DTD SVG 20010904//EN"
 "http://www.w3.org/TR/2001/REC-SVG-20010904/DTD/svg10.dtd">
<svg version="1.0" xmlns="http://www.w3.org/2000/svg"
 width="1080.000000pt" height="1920.000000pt" viewBox="0 0 1080.000000 1920.000000"
 preserveAspectRatio="xMidYMid meet">

<g transform="translate(0.000000,1920.000000) scale(0.100000,-0.100000)"
fill="#000000" stroke="none">
<path d="M5750 9180 c-40 -40 -16 -100 40 -100 16 0 36 7 44 16 24 23 20 70
-6 88 -30 21 -54 20 -78 -4z"/>
<path d="M5540 9160 c-19 -19 -20 -33 -20 -284 0 -290 1 -296 59 -296 50 0 51
4 51 296 0 271 0 273 -22 288 -30 21 -44 20 -68 -4z"/>
<path d="M4157 9158 c-9 -7 -37 -65 -62 -128 -26 -63 -74 -179 -107 -258 -57
-138 -59 -144 -43 -168 13 -20 23 -24 48 -22 28 3 35 10 56 56 l25 52 131 0
131 0 25 -52 c22 -49 27 -53 61 -56 32 -3 40 1 49 21 9 20 -4 59 -90 278 -61
153 -110 261 -122 272 -25 20 -78 23 -102 5z m98 -240 c22 -61 42 -115 43
-120 2 -4 -37 -8 -87 -8 -52 0 -91 4 -91 10 0 16 83 230 90 230 3 0 24 -50 45
-112z"/>
<path d="M4516 8998 c-9 -12 -16 -26 -16 -31 0 -18 143 -353 157 -369 22 -25
87 -24 110 1 10 11 51 97 92 191 64 148 72 174 63 195 -15 33 -57 43 -82 20
-11 -10 -20 -22 -20 -26 0 -22 -104 -269 -111 -262 -4 4 -29 67 -55 138 -26
72 -54 138 -62 148 -21 24 -58 21 -76 -5z"/>
<path d="M5105 9007 c-62 -29 -114 -100 -128 -174 -9 -48 9 -132 39 -176 17
-25 43 -47 77 -63 79 -36 153 -30 205 18 12 12 22 17 22 10 0 -20 31 -42 60
-42 45 0 52 25 48 164 -3 107 -6 126 -28 166 -14 24 -44 57 -67 74 -36 25 -53
30 -120 33 -52 2 -88 -1 -108 -10z m161 -103 c74 -49 71 -179 -6 -219 -84 -43
-180 15 -180 110 0 40 29 94 59 110 35 19 96 19 127 -1z"/>
<path d="M5770 9013 c-8 -3 -18 -11 -22 -17 -4 -6 -8 -97 -8 -202 0 -203 2
-214 50 -214 48 0 50 10 50 216 0 188 -1 193 -22 208 -24 17 -25 17 -48 9z"/>
<path d="M6055 9001 c-81 -38 -125 -111 -125 -208 1 -128 92 -223 216 -223 17
0 52 11 79 25 48 24 49 24 62 5 16 -22 62 -27 81 -8 8 8 12 53 12 137 0 140
-13 183 -66 233 -63 59 -179 76 -259 39z m163 -95 c71 -37 77 -155 11 -210
-65 -55 -166 -21 -189 63 -29 110 78 199 178 147z"/>
</g>
</svg>
