<?xml version="1.0" standalone="no"?>
<!DOCTYPE svg PUBLIC "-//W3C//DTD SVG 20010904//EN"
 "http://www.w3.org/TR/2001/REC-SVG-20010904/DTD/svg10.dtd">
<svg version="1.0" xmlns="http://www.w3.org/2000/svg"
 width="1024.000000pt" height="1024.000000pt" viewBox="0 0 1024.000000 1024.000000"
 preserveAspectRatio="xMidYMid meet">

<g transform="translate(0.000000,1024.000000) scale(0.100000,-0.100000)"
fill="#000000" stroke="none">
<path d="M3142 5865 c3 -646 3 -650 26 -717 46 -136 161 -271 292 -342 70 -38
190 -66 282 -66 l78 0 0 -188 c0 -170 2 -191 18 -205 25 -23 53 -21 90 6 17
12 119 104 226 205 l195 182 416 0 416 0 -80 60 c-190 143 -355 367 -447 605
-13 33 -23 52 -24 43 0 -11 -8 -18 -18 -18 -10 0 -24 -6 -31 -12 -10 -11 -10
-7 -1 16 10 26 8 32 -14 53 -25 23 -38 29 -34 16 2 -5 0 -9 -4 -10 -19 -7 -28
-2 -28 15 0 10 -8 18 -19 19 -10 1 -31 14 -47 29 -18 17 -22 25 -11 21 9 -4
17 -2 17 3 0 10 -6 11 -47 13 -10 1 -23 11 -30 22 -14 25 -81 34 -95 13 -8
-10 -9 -10 -6 1 5 19 -51 81 -74 81 -10 0 -18 -4 -18 -10 0 -5 -5 -10 -12 -10
-9 0 -9 3 0 12 16 16 15 28 -1 28 -7 0 -23 7 -35 16 -18 13 -21 19 -11 30 10
12 9 13 -4 9 -9 -4 -21 3 -31 17 -13 18 -16 19 -16 5 0 -9 5 -17 10 -17 6 0
10 -8 10 -17 0 -11 -3 -14 -8 -8 -12 19 -73 57 -79 51 -3 -3 -18 3 -33 14 -16
11 -33 20 -39 20 -6 0 -10 6 -8 13 1 6 -6 12 -16 12 -10 0 -24 7 -30 15 -7 8
-24 21 -39 29 -16 8 -28 20 -28 27 0 7 -5 16 -10 19 -6 4 -10 3 -9 -2 4 -21
-3 -23 -31 -6 -20 11 -28 23 -25 32 3 9 3 12 -1 8 -4 -4 -13 2 -21 13 -8 11
-22 20 -32 20 -9 0 -36 9 -60 21 -33 16 -40 23 -31 33 8 10 7 15 -5 20 -9 3
-13 2 -10 -3 3 -5 0 -13 -6 -16 -6 -4 -13 2 -16 14 -3 12 -13 21 -24 21 -11 0
-16 5 -13 14 3 8 -3 16 -15 19 -12 3 -19 1 -15 -4 10 -16 -7 -10 -40 16 -18
14 -40 25 -49 25 -20 0 -22 11 -5 28 8 8 9 12 1 12 -6 0 -13 -6 -16 -12 -3 -9
-12 -6 -29 10 -13 12 -30 22 -37 22 -11 0 -11 3 0 18 11 14 11 15 -1 5 -22
-20 -40 -15 -40 10 0 18 -2 19 -10 7 -6 -10 -10 -11 -10 -2 0 6 -9 12 -20 12
-11 0 -21 5 -21 10 -1 6 -2 14 -3 19 0 5 -5 13 -10 18 -5 4 -6 3 -2 -4 9 -16
-14 -29 -24 -13 -4 6 -8 48 -9 93 -1 45 -4 84 -7 86 -3 3 -3 -287 -2 -644z"/>
<path d="M3600 6070 c0 -5 5 -10 10 -10 6 0 10 5 10 10 0 6 -4 10 -10 10 -5 0
-10 -4 -10 -10z"/>
<path d="M3870 5901 c0 -6 4 -13 10 -16 6 -3 7 1 4 9 -7 18 -14 21 -14 7z"/>
<path d="M3978 5843 c6 -2 9 -10 6 -15 -4 -7 -2 -8 5 -4 13 9 5 26 -12 25 -9
0 -8 -2 1 -6z"/>
<path d="M4151 5747 c2 -1 12 -9 22 -16 15 -12 17 -12 11 3 -3 9 -13 16 -22
16 -8 0 -13 -1 -11 -3z"/>
<path d="M4250 5675 c0 -8 4 -15 10 -15 5 0 7 7 4 15 -4 8 -8 15 -10 15 -2 0
-4 -7 -4 -15z"/>
<path d="M4445 5560 c3 -5 13 -10 21 -10 8 0 12 5 9 10 -3 6 -13 10 -21 10 -8
0 -12 -4 -9 -10z"/>
<path d="M5641 3737 c-56 -33 -67 -103 -22 -148 25 -24 38 -29 78 -29 58 0 88
18 103 64 20 62 -20 116 -92 122 -26 3 -53 -1 -67 -9z"/>
<path d="M5260 3285 l0 -405 85 0 85 0 0 405 0 405 -85 0 -85 0 0 -405z"/>
<path d="M3341 3628 c-15 -38 -112 -257 -225 -507 -58 -129 -106 -236 -106
-238 0 -2 41 -2 92 -1 l91 3 32 75 32 75 183 0 182 0 32 -77 31 -78 93 0 c50
0 92 4 92 8 0 5 -30 74 -67 153 -36 79 -112 248 -169 374 l-102 230 -91 3
c-87 3 -92 2 -100 -20z m158 -300 c29 -73 56 -139 58 -145 4 -10 -23 -13 -116
-13 -67 0 -121 2 -121 5 0 13 114 285 119 285 4 0 30 -60 60 -132z"/>
<path d="M3844 3444 c6 -22 164 -404 210 -506 l26 -58 93 0 92 0 118 283 c64
156 117 288 117 293 0 5 -37 8 -83 6 l-83 -3 -75 -185 c-41 -102 -79 -186 -84
-187 -5 -1 -44 83 -85 187 l-76 188 -87 2 c-85 1 -88 0 -83 -20z"/>
<path d="M4680 3456 c-58 -16 -120 -46 -120 -57 0 -13 49 -109 56 -109 3 0 17
6 32 14 49 25 135 38 183 27 49 -11 89 -49 89 -85 0 -23 -3 -23 -126 -29 -105
-4 -133 -9 -171 -29 -62 -31 -85 -65 -91 -132 -9 -112 73 -186 208 -186 80 0
125 14 163 48 l27 26 0 -32 0 -32 86 0 86 0 -4 208 c-3 170 -7 215 -22 249
-24 56 -74 99 -138 118 -61 18 -194 18 -258 1z m240 -375 c0 -65 -69 -110
-147 -98 -73 12 -98 76 -47 116 22 17 41 21 110 21 l84 0 0 -39z"/>
<path d="M6065 3455 c-27 -8 -52 -14 -55 -15 -3 0 -20 -9 -38 -20 l-32 -20 26
-52 c15 -29 28 -55 30 -57 2 -2 27 6 55 18 98 43 214 28 244 -30 28 -54 26
-56 -110 -61 -109 -5 -133 -9 -180 -32 -42 -21 -58 -36 -74 -70 -64 -132 26
-245 197 -246 78 0 131 16 169 52 l23 21 0 -31 0 -32 80 0 80 0 0 191 c0 104
-5 210 -11 233 -14 55 -59 110 -112 138 -55 28 -217 35 -292 13z m245 -368 c0
-42 -24 -75 -66 -93 -43 -18 -88 -18 -123 1 -48 24 -54 63 -16 100 22 23 32
25 115 25 l90 0 0 -33z"/>
<path d="M5610 3170 l0 -290 85 0 85 0 0 290 0 290 -85 0 -85 0 0 -290z"/>
</g>
</svg>
