<svg xmlns="http://www.w3.org/2000/svg" width="1024" height="1024" fill="none" viewBox="0 0 1024 1024">
  <g clip-path="url(#a)">
    <g clip-path="url(#b)">
      <mask id="c" width="503" height="530" x="260" y="247" maskUnits="userSpaceOnUse" style="mask-type:luminance">
        <path fill="#fff" d="M763 247H260v530h503V247Z"/>
      </mask>
      <g mask="url(#c)">
        <path fill="url(#d)" d="M710.414 738.164v25.891h17.528v-25.891h25.913v-16.753h-25.913v-25.129h-16.766v25.129h-25.912v16.753h25.15Z"/>
        <path fill="url(#e)" d="M602.192 556.167c77.868 0 140.993-63.073 140.993-140.877S680.06 274.414 602.192 274.414 461.2 337.486 461.2 415.29s63.124 140.877 140.992 140.877Z"/>
        <path fill="url(#f)" d="M567.897 254.615a73.056 73.056 0 0 1 25.539 4.581c-81.624 1.067-147.478 70.885-147.478 156.856 0 55.732 27.677 104.673 69.383 132.5H408.212l-.605.559-48.941 45.194a10.215 10.215 0 0 1-3.341 2.059l-1.193.447a7.63 7.63 0 0 1-6.716-.674 7.989 7.989 0 0 1-3.745-6.413c-.225-5.388-.6-17.239-.6-41.172v-.194c-37.916-2.73-67.829-34.328-67.829-72.91v-147.73c0-40.374 32.757-73.103 73.164-73.103h219.491Z"/>
        <path fill="#fff" d="M605.652 335.931c2.308-6.797 11.885-6.921 14.368-.186l17.328 46.997a7.621 7.621 0 0 0 7.389 4.978l48.309-1.502c7.035-.219 10.583 8.391 5.433 13.183l-20.363 18.95-19.984 17.391a7.61 7.61 0 0 0-2.329 7.813l12.779 45.177c1.938 6.853-5.761 12.379-11.642 8.353l-34.753-23.783a7.38 7.38 0 0 0-1.217-.677c7.098-11.037 11.268-24.505 11.268-39.042 0-28.378-15.887-52.679-38.429-62.775l11.843-34.877Z"/>
        <path fill="#fff" d="M563.324 371.885c33.672 0 60.97 27.275 60.97 60.92 0 33.644-27.298 60.919-60.97 60.919s-60.969-27.275-60.969-60.919c0-33.645 27.297-60.92 60.969-60.92Zm30.133 28.718a13.237 13.237 0 0 0-10.391 3.601l-28.217 26.939a2.01 2.01 0 0 1-2.81-.03l-8.022-8.016a12.95 12.95 0 0 0-5.66-3.308c-8.415-2.353-16.695 4.135-16.413 12.862l.055 1.724a14.181 14.181 0 0 0 4.15 9.575l21.518 21.5c3.969 3.966 10.458 3.794 14.214-.376l.485-.539 39.028-39.677a14.35 14.35 0 0 0 4.063-11.302l-.082-.945a13.219 13.219 0 0 0-11.918-12.008Zm-3.875 11.67c3.055-1.308 6.259 1.513 5.346 4.705a3.928 3.928 0 0 1-.976 1.678l-37.057 37.769a3.217 3.217 0 0 1-4.606-.017l-18.576-19.199a3.743 3.743 0 0 1-1.032-2.23c-.252-2.503 1.992-4.534 4.46-4.042l.251.052a3.939 3.939 0 0 1 2.012 1.075l12.075 12.067a3.823 3.823 0 0 0 5.399 0l30.683-30.659a4.306 4.306 0 0 1 1.346-.911l.675-.288Z"/>
        <path fill="#3A424C" d="M285.17 766.339h-21.435l39.026-110.762h24.791l39.08 110.762h-21.435l-29.608-88.047h-.866l-29.553 88.047Zm.703-43.429h58.458v16.117h-58.458V722.91Zm155.289-39.642-29.608 83.071h-21.651l-29.608-83.071h20.894l19.107 61.708h.866l19.161-61.708h20.839Zm32.054 84.748c-5.268 0-10.013-.938-14.235-2.813-4.187-1.91-7.507-4.723-9.96-8.437-2.419-3.714-3.627-8.293-3.627-13.736 0-4.688.867-8.564 2.598-11.628a20.092 20.092 0 0 1 7.091-7.356c2.995-1.839 6.368-3.228 10.121-4.164a82.513 82.513 0 0 1 11.746-2.11c4.871-.505 8.824-.956 11.854-1.352 3.032-.432 5.233-1.081 6.605-1.946 1.406-.902 2.111-2.291 2.111-4.166v-.324c0-4.074-1.209-7.23-3.627-9.464-2.419-2.236-5.9-3.354-10.447-3.354-4.8 0-8.606 1.047-11.421 3.138-2.779 2.091-4.655 4.56-5.629 7.409l-18.295-2.597c1.443-5.047 3.824-9.265 7.144-12.656 3.32-3.425 7.38-5.983 12.178-7.678 4.8-1.732 10.105-2.597 15.915-2.597 4.006 0 7.993.469 11.962 1.407 3.969.937 7.596 2.487 10.88 4.651 3.284 2.126 5.917 5.029 7.902 8.707 2.021 3.678 3.032 8.275 3.032 13.791v55.598h-18.837v-11.412h-.649c-1.191 2.308-2.869 4.472-5.035 6.49-2.129 1.984-4.816 3.588-8.064 4.814-3.212 1.189-6.983 1.785-11.313 1.785Zm5.088-14.386c3.934 0 7.343-.775 10.23-2.326 2.887-1.587 5.106-3.678 6.658-6.273 1.587-2.597 2.381-5.426 2.381-8.492v-9.788c-.613.504-1.66.973-3.138 1.405-1.444.433-3.069.812-4.872 1.136-1.805.325-3.591.613-5.359.865-1.768.253-3.302.47-4.6.649-2.924.396-5.539 1.046-7.85 1.947-2.309.901-4.131 2.164-5.466 3.786-1.335 1.587-2.003 3.641-2.003 6.166 0 3.605 1.317 6.327 3.951 8.167 2.634 1.838 5.99 2.758 10.068 2.758Zm75.058-98.053v110.762h-19.594V655.577h19.594Zm17.1 110.762v-83.071h19.594v83.071h-19.594Zm9.851-94.862c-3.103 0-5.773-1.028-8.009-3.083-2.238-2.091-3.357-4.598-3.357-7.517 0-2.956 1.119-5.463 3.357-7.518 2.236-2.091 4.906-3.137 8.009-3.137 3.14 0 5.811 1.046 8.012 3.137 2.237 2.055 3.356 4.562 3.356 7.518 0 2.919-1.119 5.426-3.356 7.517-2.201 2.055-4.872 3.083-8.012 3.083Zm50.768 96.539c-5.267 0-10.012-.938-14.235-2.813-4.185-1.91-7.505-4.723-9.959-8.437-2.417-3.714-3.626-8.293-3.626-13.736 0-4.688.866-8.564 2.597-11.628a20.1 20.1 0 0 1 7.091-7.356c2.995-1.839 6.37-3.228 10.122-4.164a82.513 82.513 0 0 1 11.746-2.11c4.872-.505 8.823-.956 11.854-1.352 3.031-.432 5.233-1.081 6.603-1.946 1.407-.902 2.111-2.291 2.111-4.166v-.324c0-4.074-1.208-7.23-3.626-9.464-2.417-2.236-5.9-3.354-10.447-3.354-4.8 0-8.606 1.047-11.421 3.138-2.779 2.091-4.655 4.56-5.629 7.409l-18.296-2.597c1.444-5.047 3.826-9.265 7.146-12.656 3.32-3.425 7.379-5.983 12.179-7.678 4.798-1.732 10.104-2.597 15.913-2.597 4.006 0 7.993.469 11.962 1.407 3.969.937 7.597 2.487 10.88 4.651 3.283 2.126 5.917 5.029 7.903 8.707 2.02 3.678 3.031 8.275 3.031 13.791v55.598h-18.837v-11.412h-.649c-1.191 2.308-2.869 4.472-5.033 6.49-2.13 1.984-4.819 3.588-8.067 4.814-3.211 1.189-6.982 1.785-11.313 1.785Zm5.09-14.386c3.932 0 7.342-.775 10.229-2.326 2.887-1.587 5.106-3.678 6.658-6.273 1.588-2.597 2.382-5.426 2.382-8.492v-9.788c-.614.504-1.66.973-3.14 1.405-1.443.433-3.066.812-4.871 1.136-1.805.325-3.591.613-5.359.865-1.768.253-3.302.47-4.601.649-2.923.396-5.539 1.046-7.848 1.947s-4.132 2.164-5.467 3.786c-1.336 1.587-2.003 3.641-2.003 6.166 0 3.605 1.317 6.327 3.951 8.167 2.635 1.838 5.99 2.758 10.069 2.758Z"/>
        <g filter="url(#g)">
          <path fill="#C5C3C3" fill-opacity=".9" d="M525.98 633.839c95.546 0 173.002-2.386 173.002-5.33s-77.456-5.331-173.002-5.331-173.001 2.387-173.001 5.331c0 2.944 77.455 5.33 173.001 5.33Z"/>
        </g>
        <g filter="url(#h)">
          <path fill="#C5C3C3" fill-opacity=".9" d="M544.271 633.839c53.456 0 96.79-2.386 96.79-5.33s-43.334-5.331-96.79-5.331c-53.455 0-96.789 2.387-96.789 5.331 0 2.944 43.334 5.33 96.789 5.33Z"/>
        </g>
      </g>
    </g>
  </g>
  <defs>
    <linearGradient id="d" x1="719.559" x2="719.559" y1="696.282" y2="764.055" gradientUnits="userSpaceOnUse">
      <stop stop-color="#ACDF38"/>
      <stop offset="1" stop-color="#5CC852"/>
    </linearGradient>
    <linearGradient id="e" x1="665.448" x2="522.347" y1="286.598" y2="537.231" gradientUnits="userSpaceOnUse">
      <stop stop-color="#9EDC3E"/>
      <stop offset=".5" stop-color="#73CC49"/>
      <stop offset="1" stop-color="#48BB53"/>
    </linearGradient>
    <linearGradient id="f" x1="611.336" x2="303.657" y1="266.799" y2="533.571" gradientUnits="userSpaceOnUse">
      <stop offset=".332" stop-color="#0CC2E4"/>
      <stop offset=".75" stop-color="#1292E5"/>
      <stop offset="1" stop-color="#045EEA"/>
    </linearGradient>
    <clipPath id="a">
      <path fill="#fff" d="M0 0h1024v1024H0z"/>
    </clipPath>
    <clipPath id="b">
      <path fill="#fff" d="M260 247h503v530H260z"/>
    </clipPath>
    <filter id="g" width="369.203" height="33.861" x="341.379" y="611.578" color-interpolation-filters="sRGB" filterUnits="userSpaceOnUse">
      <feFlood flood-opacity="0" result="BackgroundImageFix"/>
      <feBlend in="SourceGraphic" in2="BackgroundImageFix" result="shape"/>
      <feGaussianBlur result="effect1_foregroundBlur_3_2" stdDeviation="5.8"/>
    </filter>
    <filter id="h" width="216.779" height="33.861" x="435.882" y="611.578" color-interpolation-filters="sRGB" filterUnits="userSpaceOnUse">
      <feFlood flood-opacity="0" result="BackgroundImageFix"/>
      <feBlend in="SourceGraphic" in2="BackgroundImageFix" result="shape"/>
      <feGaussianBlur result="effect1_foregroundBlur_3_2" stdDeviation="5.8"/>
    </filter>
  </defs>
</svg>
